<?xml version="1.0" encoding="UTF-8" standalone="no"?><!DOCTYPE svg PUBLIC "-//W3C//DTD SVG 1.1//EN" "http://www.w3.org/Graphics/SVG/1.1/DTD/svg11.dtd"><svg width="100%" height="100%" viewBox="0 0 4171 4167" version="1.1" xmlns="http://www.w3.org/2000/svg" xmlns:xlink="http://www.w3.org/1999/xlink" xml:space="preserve" xmlns:serif="http://www.serif.com/" style="fill-rule:evenodd;clip-rule:evenodd;stroke-linejoin:round;stroke-miterlimit:2;"><rect id="logo" x="0.536" y="0" width="4166.67" height="4166.67" style="fill:none;"/><path d="M4080.77,671.915c0,-330.636 -268.435,-599.071 -599.072,-599.071l-2795.67,0c-330.637,0 -599.072,268.435 -599.072,599.071l0,2822.84c0,330.637 268.435,599.072 599.072,599.072l2795.67,0c330.637,0 599.072,-268.435 599.072,-599.072l0,-2822.84Z" style="fill:#212121;"/><g><g id="turnip"><path d="M2927.89,1484.74c7.694,28.63 159.699,-22.614 387.007,9.326c138.949,19.537 235.468,33.059 340.379,97.917c53.761,33.245 228.986,141.561 242.462,312.403c12.543,158.952 -121.791,284.007 -242.462,396.332c-73.951,68.718 -157.128,126.786 -247.125,172.521c-4.404,-55.496 -15.36,-110.275 -32.639,-163.196c-30.82,-94.187 -75.349,-162.123 -139.882,-247.124c-78.042,-102.577 -162.12,-200.418 -251.787,-293.006c-26.717,-120.718 -85.048,-225.63 -172.521,-299.161c-114.19,-95.959 -331.706,-183.525 -475.598,-107.242c-8.014,4.245 -15.796,8.914 -23.314,13.988c-5.815,-26.302 -14.428,-51.906 -25.691,-76.376c-10.443,-22.771 -23.78,-44.1 -39.68,-63.459c-79.266,-96.519 -224.557,-146.317 -406.87,-140.395c-58.89,1.377 -117.649,6.219 -175.971,14.501c-212.434,30.168 -328.676,93.488 -466.273,135.219c-108.222,32.639 -267.64,63.833 -480.261,46.627l0,-540.876c42.245,-61.082 140.348,-183.991 312.403,-256.45c66.537,-27.976 231.831,-97.591 414.983,-37.302c130.883,43.084 207.445,131.629 275.101,209.823c75.688,87.787 134.212,189.018 172.521,298.414c26.997,-208.843 -19.957,-336.276 -69.941,-414.982c-85.142,-134.054 -225.723,-200.498 -205.16,-289.09c10.724,-46.161 58.843,-70.966 83.929,-83.929c179.328,-92.508 422.909,83.929 447.622,102.58c54.6,40.706 167.345,119.739 200.497,256.45c12.496,51.524 10.864,99.037 9.325,144.545c-1.905,55.622 -9.435,110.908 -22.474,165.014c-8.099,22.218 -14.612,44.983 -19.49,68.122c6.388,-19.21 13.195,-41.964 19.49,-68.122c7.212,-20.483 15.524,-40.562 24.899,-60.149c7.087,-14.781 15.201,-30.215 24.526,-45.882c44.109,-74.603 114.517,-155.128 224.79,-203.714c187.722,-82.717 365.138,-17.112 424.308,9.325c51.57,23.034 104.306,68.216 209.823,158.533c222.272,190.286 217.19,235.654 326.391,279.764c104.585,42.244 148.461,16.506 247.125,79.266c33.431,21.262 135.219,86.121 135.219,158.533c0,87.379 -148.881,180.354 -373.019,214.485c-50.264,-216.07 -109.993,-272.769 -158.532,-279.763c-64.066,-9.326 -97.172,69.941 -261.113,181.846c-141.421,96.938 -239.151,121.79 -232.997,144.684Z" style="fill:#0cdd93;fill-rule:nonzero;"/><path d="M2387.02,2794.97c-2.052,338.048 -223.205,555.61 -303.077,634.131c-290.628,285.825 -662.108,313.149 -778.676,321.728c-128.691,9.325 -295.617,-13.988 -629.468,-60.615c-191.591,-26.811 -350.264,-54.135 -461.61,-74.604c38.561,-12.077 162.543,-55.953 237.799,-181.846c57.631,-96.193 56.839,-190.333 55.953,-233.137c-3.87,-184.504 -105.657,-228.473 -149.207,-391.669c-60.103,-224.977 53.947,-439.042 130.556,-582.841c53.388,-100.202 138.39,-255.098 321.728,-373.018c58.331,-37.302 233.883,-146.923 480.261,-135.219c124.025,6.284 244.872,41.53 352.829,102.906c20.257,66.339 50.661,129.144 90.13,186.183c23.61,35.221 50.308,68.271 79.779,98.757c37.939,39.034 81.834,71.802 130.044,97.077c82.623,42.851 167.858,56.559 245.679,55.254c54.647,66.63 198.912,261.952 197.28,536.913Z" style="fill:#0cdd93;fill-rule:nonzero;"/><g><path d="M2983.85,1769.92c-13.584,-14.05 -27.572,-28.287 -41.964,-42.711c-56.807,3.163 -113.097,12.545 -167.859,27.977c-211.361,59.729 -343.782,195.461 -419.645,275.101c-64.446,67.838 -120.778,142.947 -167.858,223.81l3.264,3.964c-77.868,1.305 -163.196,-12.403 -245.679,-55.254c-48.21,-25.275 -92.105,-58.043 -130.044,-97.077c-29.471,-30.486 -56.17,-63.536 -79.779,-98.757c-39.469,-57.039 -69.873,-119.844 -90.131,-186.183c5.549,3.124 10.725,6.155 15.527,8.999l13.988,-13.988c29.469,-52.409 66.398,-120.252 107.243,-200.497c81.225,-159.652 100.202,-216.071 111.906,-270.438c36.789,-170.983 0.373,-214.486 -9.326,-223.811c-12.179,-11.418 -27.024,-19.61 -43.177,-23.827c182.313,-5.921 327.37,43.876 406.87,140.395c15.9,19.359 29.237,40.688 39.68,63.46c11.263,24.469 19.876,50.073 25.691,76.375c7.518,-5.073 15.3,-9.743 23.314,-13.988c143.892,-76.282 361.408,11.284 475.598,107.243c87.333,73.577 145.664,178.489 172.381,299.207Z" style="fill:#0cdd93;fill-rule:nonzero;"/><path d="M3198.33,850.614c-31.66,13.615 -62.807,26.297 -93.255,40.332c-30.448,14.035 -60.102,28.396 -89.151,43.83c-115.555,61.263 -221.233,139.574 -313.475,232.297c-46.628,46.627 -89.805,96.845 -133.681,149.813c9.924,-33.048 23.091,-65.034 39.307,-95.492c16.174,-30.671 34.726,-60.027 55.486,-87.8c41.894,-55.952 91.773,-105.455 148.042,-146.922c56.216,-41.602 118.158,-74.851 183.898,-98.71c65.278,-23.174 133.914,-37.582 202.829,-37.348Z" style="fill:#0cdd93;fill-rule:nonzero;"/><path d="M1976.7,389.004c50.684,29.142 93.581,71.106 128.272,119.132c17.385,24.174 32.51,49.896 45.182,76.842c6.201,13.568 12.123,27.277 17.158,41.358c2.751,6.948 4.943,13.989 7.134,21.262l6.482,21.449c3.31,14.594 7.367,29.002 9.325,43.83c1.166,7.367 2.611,14.734 3.497,22.148l2.285,22.241c2.496,29.658 2.309,59.48 -0.56,89.104c-2.965,29.383 -8.631,58.431 -16.925,86.774c-8.125,28.159 -19.6,55.241 -34.178,80.665c3.407,-56.041 3.407,-112.237 0,-168.278c-2.052,-27.23 -5.362,-54.134 -9.605,-80.758l-3.451,-19.91c-1.259,-6.621 -2.751,-13.149 -4.15,-19.723l-1.958,-9.885c-0.746,-3.264 -1.679,-6.528 -2.471,-9.746l-4.663,-19.583l-5.642,-19.35l-2.844,-9.466c-0.933,-3.217 -2.145,-6.341 -3.124,-9.325c-3.964,-12.869 -8.626,-25.459 -13.149,-38.188c-9.512,-25.21 -20.236,-50.078 -32.173,-74.603c-11.843,-24.62 -24.946,-48.866 -39.12,-72.972c-14.175,-24.106 -29.562,-48.353 -45.322,-73.018Z" style="fill:#0cdd93;fill-rule:nonzero;"/><path d="M838.991,1018.47c15.546,-45.928 39.413,-88.605 70.407,-125.894c3.823,-4.663 7.926,-9.325 12.03,-13.988l12.822,-13.242c4.336,-4.337 8.486,-8.953 13.149,-13.009l13.988,-12.123c9.326,-8.143 19.102,-15.755 29.282,-22.801l7.507,-5.502l7.88,-4.989l15.807,-9.839c5.222,-3.45 10.864,-6.014 16.273,-9.045c5.408,-3.031 10.957,-5.922 16.506,-8.72l17.019,-7.693l8.532,-3.777c2.845,-1.259 5.736,-2.285 8.626,-3.404l17.439,-6.667c5.829,-2.192 11.797,-3.87 17.718,-5.782c11.797,-3.963 23.827,-6.854 35.81,-10.072c24.069,-5.641 48.429,-9.953 72.972,-12.915c24.572,-2.751 48.959,-4.057 73.111,-4.663l18.651,0c6.202,0 12.403,0.373 18.651,0.559c6.248,0.187 12.403,0.42 18.651,0.98c6.248,0.559 12.403,0.885 18.651,1.492c24.589,2.769 49.01,6.862 73.158,12.263c47.882,11.291 94.269,28.178 138.204,50.31c43.235,21.889 83.95,48.438 121.417,79.174c18.623,15.194 36.399,31.398 53.248,48.539c16.74,16.994 32.317,35.095 46.628,54.18c-76.842,-55.952 -157.414,-102.58 -242.462,-134.752c-83.897,-32.753 -173.395,-48.784 -263.444,-47.187c-45.109,0.328 -90.104,4.587 -134.473,12.729c-43.843,8.218 -86.546,21.648 -127.2,40.006c-20.336,9.366 -39.998,20.132 -58.843,32.22l-13.988,9.325c-4.663,3.078 -9.046,6.714 -13.662,10.025l-13.662,10.118c-4.445,3.544 -8.828,7.181 -13.149,10.911c-17.484,14.971 -33.949,31.093 -49.285,48.259c-15.627,17.527 -30.305,35.878 -43.969,54.974Z" style="fill:#0cdd93;fill-rule:nonzero;"/><path d="M2983.85,1578c43.786,-2.983 87.747,-2.188 131.396,2.378c43.865,4.45 87.365,11.96 130.183,22.474c21.589,5.502 42.245,11.098 63.18,17.159c20.936,6.062 41.965,12.403 62.807,19.211c43.155,13.63 84.795,31.661 124.262,53.808l14.921,9.325l14.501,10.025c4.895,3.264 9.558,7.041 13.988,10.724c4.429,3.684 9.325,7.227 13.988,11.424l13.102,12.309l12.263,13.243c4.197,4.289 7.787,9.325 11.517,13.988c3.816,4.623 7.38,9.448 10.678,14.454c13.657,19.548 24.884,40.686 33.432,62.947c4.26,10.999 7.917,22.222 10.957,33.618l2.191,8.533l1.819,8.579c1.305,5.689 2.238,11.424 3.171,17.159c3.535,22.744 4.878,45.775 4.009,68.776c-0.373,11.377 -1.305,22.66 -2.564,33.898c-1.259,11.237 -3.031,22.287 -5.269,33.291c-4.309,21.822 -10.215,43.297 -17.672,64.253c-7.295,20.764 -16.213,40.923 -26.67,60.289c7.627,-42.223 11.791,-84.998 12.449,-127.899c0.237,-20.795 -0.822,-41.584 -3.171,-62.247c-1.165,-10.258 -2.704,-20.33 -4.662,-30.355c-1.959,-10.024 -4.197,-19.769 -6.855,-29.468c-9.967,-38.054 -27.402,-73.75 -51.29,-105.005c-11.708,-15.267 -25.062,-29.199 -39.819,-41.544c-14.977,-12.661 -31.067,-23.944 -48.073,-33.712c-17.539,-10.277 -35.661,-19.524 -54.274,-27.697c-9.326,-4.662 -18.977,-8.346 -28.583,-12.449l-29.328,-11.797c-19.724,-7.74 -39.68,-15.154 -59.823,-22.801l-60.149,-22.754c-79.546,-29.841 -161.75,-53.155 -246.612,-74.137Z" style="fill:#0cdd93;fill-rule:nonzero;"/><g opacity="0.8"><path d="M2060.86,2661.38c18.581,22.898 34.345,47.946 46.954,74.603c12.941,26.71 23.202,54.636 30.634,83.37c4.057,14.454 6.714,29.189 9.326,44.109c1.258,7.461 2.051,14.968 3.03,22.521l1.399,11.377c0.466,3.824 0.513,7.601 0.793,11.424c0.419,7.647 0.932,15.34 1.212,23.034c0.28,7.693 0,15.434 0,23.314c0,7.88 0,15.573 -0.979,23.313c-0.979,7.74 -1.446,15.574 -2.285,23.314l-1.305,11.75l-1.959,11.657l-4.336,23.313c-0.676,3.9 -1.563,7.76 -2.658,11.564l-3.077,11.564c-2.052,7.646 -4.057,15.433 -6.342,23.313c-5.408,14.967 -10.444,30.308 -16.645,45.135l-9.792,22.055c-3.544,7.227 -7.321,14.315 -11.004,21.495c-15.223,28.401 -32.867,55.436 -52.736,80.805c-10.071,12.45 -20.469,24.759 -31.426,36.416c-5.363,5.968 -11.098,11.564 -16.833,17.112c-5.735,5.549 -11.33,11.284 -17.345,16.506c-6.015,5.223 -11.983,10.492 -18.045,15.621l-18.651,14.92c-6.248,4.896 -12.822,9.326 -19.21,13.988c-6.388,4.663 -12.916,9.326 -19.584,13.289c-13.242,8.626 -26.81,16.46 -40.472,24.107c-13.662,7.646 -27.977,14.501 -41.965,20.516c-28.206,12.631 -57.36,23.03 -87.193,31.1c-29.376,8.093 -59.34,13.877 -89.617,17.299l-11.238,1.352l-11.33,0.839c-7.507,0.513 -15.014,1.166 -22.521,1.446c-15.014,0.326 -29.935,0.746 -44.902,0l-11.144,-0.373c-3.73,0 -7.46,-0.56 -11.144,-0.84c-7.46,-0.652 -14.827,-1.165 -22.195,-2.005c-14.734,-1.958 -29.328,-3.823 -43.783,-6.901c-28.833,-5.552 -57.132,-13.587 -84.581,-24.013c-27.508,-10.252 -53.82,-23.463 -78.474,-39.4c13.988,-5.268 27.976,-8.672 41.358,-13.288l20.003,-6.109c6.668,-2.284 13.196,-4.243 19.724,-6.294c25.971,-8.347 51.29,-16.46 75.489,-25.319c12.217,-4.103 24.153,-8.952 35.997,-13.149c11.843,-4.196 23.313,-9.045 34.877,-13.988c22.94,-9.325 45.135,-19.257 66.677,-29.375c86.12,-40.939 161.843,-89.012 225.816,-146.503c4.196,-3.404 7.926,-7.227 11.89,-10.864l5.875,-5.502l5.642,-5.642c3.73,-3.824 7.786,-7.367 11.33,-11.33c3.544,-3.964 7.181,-7.787 11.004,-11.564c14.361,-15.667 27.976,-32.033 40.939,-48.912c26.49,-34.846 49.288,-72.349 68.029,-111.906c20.652,-43.467 37.485,-88.648 50.311,-135.032c14.454,-49.099 24.572,-101.368 36.462,-159.232Z" style="fill:#0cdd93;fill-rule:nonzero;"/></g></g><path d="M2983.85,1769.92c-13.584,-14.05 -27.572,-28.287 -41.964,-42.711c-56.807,3.163 -113.097,12.545 -167.859,27.977c-211.361,59.729 -343.782,195.461 -419.645,275.101c-64.446,67.838 -120.778,142.947 -167.858,223.81l3.264,3.964c-77.868,1.305 -163.196,-12.403 -245.679,-55.254c-48.21,-25.275 -92.105,-58.043 -130.044,-97.077c-29.471,-30.486 -56.17,-63.536 -79.779,-98.757c-39.469,-57.039 -69.873,-119.844 -90.131,-186.183c5.549,3.124 10.725,6.155 15.527,8.999l13.988,-13.988c29.469,-52.409 66.398,-120.252 107.243,-200.497c81.225,-159.652 100.202,-216.071 111.906,-270.438c36.789,-170.983 0.373,-214.486 -9.326,-223.811c-12.179,-11.418 -27.024,-19.61 -43.177,-23.827c182.313,-5.921 327.37,43.876 406.87,140.395c15.9,19.359 29.237,40.688 39.68,63.46c11.263,24.469 19.876,50.073 25.691,76.375c7.518,-5.073 15.3,-9.743 23.314,-13.988c143.892,-76.282 361.408,11.284 475.598,107.243c87.333,73.577 145.664,178.489 172.381,299.207Zm0,-191.918c43.786,-2.983 87.747,-2.188 131.396,2.378c43.865,4.45 87.365,11.96 130.183,22.474c21.589,5.502 42.245,11.098 63.18,17.159c20.936,6.062 41.965,12.403 62.807,19.211c43.155,13.63 84.795,31.661 124.262,53.808l14.921,9.325l14.501,10.025c4.895,3.264 9.558,7.041 13.988,10.724c4.429,3.684 9.325,7.227 13.988,11.424l13.102,12.309l12.263,13.243c4.197,4.289 7.787,9.325 11.517,13.988c3.816,4.623 7.38,9.448 10.678,14.454c13.657,19.548 24.884,40.686 33.432,62.947c4.26,10.999 7.917,22.222 10.957,33.618l2.191,8.533l1.819,8.579c1.305,5.689 2.238,11.424 3.171,17.159c3.535,22.744 4.878,45.775 4.009,68.776c-0.373,11.377 -1.305,22.66 -2.564,33.898c-1.259,11.237 -3.031,22.287 -5.269,33.291c-4.309,21.822 -10.215,43.297 -17.672,64.253c-7.295,20.764 -16.213,40.923 -26.67,60.289c7.627,-42.223 11.791,-84.998 12.449,-127.899c0.237,-20.795 -0.822,-41.584 -3.171,-62.247c-1.165,-10.258 -2.704,-20.33 -4.662,-30.355c-1.959,-10.024 -4.197,-19.769 -6.855,-29.468c-9.967,-38.054 -27.402,-73.75 -51.29,-105.005c-11.708,-15.267 -25.062,-29.199 -39.819,-41.544c-14.977,-12.661 -31.067,-23.944 -48.073,-33.712c-17.539,-10.277 -35.661,-19.524 -54.274,-27.697c-9.326,-4.662 -18.977,-8.346 -28.583,-12.449l-29.328,-11.797c-19.724,-7.74 -39.68,-15.154 -59.823,-22.801l-60.149,-22.754c-79.546,-29.841 -161.75,-53.155 -246.612,-74.137Zm214.486,-727.385c-31.66,13.615 -62.807,26.297 -93.255,40.332c-30.448,14.035 -60.102,28.396 -89.151,43.83c-115.555,61.263 -221.233,139.574 -313.475,232.297c-46.628,46.627 -89.805,96.845 -133.681,149.813c9.924,-33.048 23.091,-65.034 39.307,-95.492c16.174,-30.671 34.726,-60.027 55.486,-87.8c41.894,-55.952 91.773,-105.455 148.042,-146.922c56.216,-41.602 118.158,-74.851 183.898,-98.71c65.278,-23.174 133.914,-37.582 202.829,-37.348Zm-2359.34,167.858c15.546,-45.928 39.413,-88.605 70.407,-125.894c3.823,-4.663 7.926,-9.325 12.03,-13.988l12.822,-13.242c4.336,-4.337 8.486,-8.953 13.149,-13.009l13.988,-12.123c9.326,-8.143 19.102,-15.755 29.282,-22.801l7.507,-5.502l7.88,-4.989l15.807,-9.839c5.222,-3.45 10.864,-6.014 16.273,-9.045c5.408,-3.031 10.957,-5.922 16.506,-8.72l17.019,-7.693l8.532,-3.777c2.845,-1.259 5.736,-2.285 8.626,-3.404l17.439,-6.667c5.829,-2.192 11.797,-3.87 17.718,-5.782c11.797,-3.963 23.827,-6.854 35.81,-10.072c24.069,-5.641 48.429,-9.953 72.972,-12.915c24.572,-2.751 48.959,-4.057 73.111,-4.663l18.651,0c6.202,0 12.403,0.373 18.651,0.559c6.248,0.187 12.403,0.42 18.651,0.98c6.248,0.559 12.403,0.885 18.651,1.492c24.589,2.769 49.01,6.862 73.158,12.263c47.882,11.291 94.269,28.178 138.204,50.31c43.235,21.889 83.95,48.438 121.417,79.174c18.623,15.194 36.399,31.398 53.248,48.539c16.74,16.994 32.317,35.095 46.628,54.18c-76.842,-55.952 -157.414,-102.58 -242.462,-134.752c-83.897,-32.753 -173.395,-48.784 -263.444,-47.187c-45.109,0.328 -90.104,4.587 -134.473,12.729c-43.843,8.218 -86.546,21.648 -127.2,40.006c-20.336,9.366 -39.998,20.132 -58.843,32.22l-13.988,9.325c-4.663,3.078 -9.046,6.714 -13.662,10.025l-13.662,10.118c-4.445,3.544 -8.828,7.181 -13.149,10.911c-17.484,14.971 -33.949,31.093 -49.285,48.259c-15.627,17.527 -30.305,35.878 -43.969,54.974Zm1137.7,-629.468c50.684,29.142 93.581,71.106 128.272,119.132c17.385,24.174 32.51,49.896 45.182,76.842c6.201,13.568 12.123,27.277 17.158,41.358c2.751,6.948 4.943,13.989 7.134,21.262l6.482,21.449c3.31,14.594 7.367,29.002 9.325,43.83c1.166,7.367 2.611,14.734 3.497,22.148l2.285,22.241c2.496,29.658 2.309,59.48 -0.56,89.104c-2.965,29.383 -8.631,58.431 -16.925,86.774c-8.125,28.159 -19.6,55.241 -34.178,80.665c3.407,-56.041 3.407,-112.237 0,-168.278c-2.052,-27.23 -5.362,-54.134 -9.605,-80.758l-3.451,-19.91c-1.259,-6.621 -2.751,-13.149 -4.15,-19.723l-1.958,-9.885c-0.746,-3.264 -1.679,-6.528 -2.471,-9.746l-4.663,-19.583l-5.642,-19.35l-2.844,-9.466c-0.933,-3.217 -2.145,-6.341 -3.124,-9.325c-3.964,-12.869 -8.626,-25.459 -13.149,-38.188c-9.512,-25.21 -20.236,-50.078 -32.173,-74.603c-11.843,-24.62 -24.946,-48.866 -39.12,-72.972c-14.175,-24.106 -29.562,-48.353 -45.322,-73.018Z" style="fill-opacity:0.2;"/></g><g id="JS"><text x="1162.23px" y="3956px" style="font-family:'Arial-BoldMT', 'Arial', sans-serif;font-weight:700;font-size:2370.6px;fill:#e7e7e7;">J</text><text x="2314.23px" y="3954.84px" style="font-family:'Arial-BoldMT', 'Arial', sans-serif;font-weight:700;font-size:2370.6px;fill:#e7e7e7;">S</text></g></g></svg>