<?xml version="1.0" encoding="UTF-8" standalone="no"?><!DOCTYPE svg PUBLIC "-//W3C//DTD SVG 1.1//EN" "http://www.w3.org/Graphics/SVG/1.1/DTD/svg11.dtd"><svg width="100%" height="100%" viewBox="0 0 2084 2084" version="1.1" xmlns="http://www.w3.org/2000/svg" xmlns:xlink="http://www.w3.org/1999/xlink" xml:space="preserve" xmlns:serif="http://www.serif.com/" style="fill-rule:evenodd;clip-rule:evenodd;stroke-linejoin:round;stroke-miterlimit:2;"><rect id="logo-no-bg-black" serif:id="logo no bg black" x="0" y="0" width="2083.33" height="2083.33" style="fill:none;"/><g id="turnip"><path d="M1465.92,748.114c3.867,14.391 80.273,-11.367 194.53,4.688c69.844,9.82 118.359,16.617 171.093,49.218c27.023,16.711 115.101,71.156 121.874,157.03c6.305,79.898 -61.218,142.757 -121.874,199.218c-37.172,34.542 -78.981,63.73 -124.218,86.718c-2.214,-27.895 -7.721,-55.43 -16.406,-82.03c-15.492,-47.344 -37.875,-81.492 -70.312,-124.218c-39.229,-51.561 -81.491,-100.741 -126.562,-147.281c-13.43,-60.679 -42.75,-113.413 -86.718,-150.374c-57.398,-48.234 -166.734,-92.249 -239.061,-53.906c-4.029,2.134 -7.94,4.481 -11.719,7.031c-2.923,-13.22 -7.253,-26.091 -12.914,-38.39c-5.249,-11.446 -11.953,-22.167 -19.945,-31.898c-39.844,-48.516 -112.875,-73.547 -204.515,-70.57c-29.601,0.692 -59.137,3.126 -88.452,7.289c-106.781,15.164 -165.21,46.992 -234.374,67.968c-54.398,16.406 -134.531,32.086 -241.405,23.437l0,-271.873c21.234,-30.703 70.547,-92.484 157.03,-128.906c33.446,-14.062 116.531,-49.054 208.593,-18.749c65.789,21.656 104.273,66.163 138.28,105.468c38.045,44.126 67.463,95.01 86.719,149.999c13.57,-104.976 -10.031,-169.03 -35.156,-208.593c-42.797,-67.382 -113.461,-100.78 -103.125,-145.311c5.391,-23.203 29.578,-35.672 42.188,-42.188c90.14,-46.499 212.576,42.188 224.998,51.563c27.445,20.46 84.117,60.187 100.781,128.905c6.281,25.898 5.461,49.781 4.687,72.656c-0.957,27.958 -4.742,55.748 -11.296,82.945c-4.072,11.168 -7.345,22.61 -9.797,34.242c3.211,-9.656 6.633,-21.094 9.797,-34.242c3.625,-10.296 7.803,-20.389 12.515,-30.234c3.563,-7.43 7.641,-15.188 12.328,-23.063c22.172,-37.5 57.562,-77.976 112.992,-102.398c94.359,-41.578 183.538,-8.601 213.28,4.688c25.922,11.578 52.429,34.289 105.468,79.687c111.726,95.648 109.171,118.452 164.062,140.624c52.57,21.234 74.624,8.297 124.218,39.844c16.804,10.687 67.968,43.288 67.968,79.687c0,43.921 -74.836,90.655 -187.499,107.812c-25.266,-108.609 -55.289,-137.109 -79.687,-140.625c-32.203,-4.687 -48.844,35.156 -131.249,91.406c-71.086,48.726 -120.211,61.218 -117.117,72.726Z" style="fill:#0cdd93;fill-rule:nonzero;"/><path d="M1194.05,1406.7c-1.032,169.921 -112.195,279.28 -152.343,318.748c-146.085,143.671 -332.811,157.406 -391.404,161.718c-64.687,4.688 -148.593,-7.031 -316.405,-30.468c-96.304,-13.477 -176.061,-27.211 -232.03,-37.5c19.383,-6.07 81.703,-28.125 119.531,-91.406c28.969,-48.351 28.57,-95.671 28.125,-117.187c-1.945,-92.741 -53.109,-114.843 -75,-196.874c-30.211,-113.085 27.117,-220.686 65.625,-292.967c26.836,-50.367 69.562,-128.226 161.718,-187.499c29.32,-18.75 117.562,-73.851 241.405,-67.968c62.341,3.159 123.085,20.875 177.35,51.726c10.183,33.346 25.465,64.915 45.305,93.586c11.867,17.704 25.287,34.316 40.101,49.64c19.07,19.621 41.134,36.092 65.367,48.797c41.531,21.539 84.374,28.429 123.491,27.773c27.469,33.492 99.984,131.671 99.164,269.881Z" style="fill:#0cdd93;fill-rule:nonzero;"/><g><path d="M1494.04,891.457c-6.828,-7.062 -13.859,-14.219 -21.094,-21.469c-28.554,1.59 -56.848,6.306 -84.374,14.063c-106.242,30.023 -172.804,98.249 -210.936,138.28c-32.395,34.1 -60.71,71.854 -84.375,112.5l1.641,1.992c-39.141,0.656 -82.031,-6.234 -123.492,-27.773c-24.233,-12.705 -46.297,-29.176 -65.367,-48.797c-14.814,-15.324 -28.234,-31.936 -40.101,-49.64c-19.839,-28.671 -35.122,-60.24 -45.304,-93.586c2.789,1.571 5.39,3.094 7.804,4.524l7.031,-7.032c14.813,-26.343 33.375,-60.444 53.906,-100.78c40.828,-80.25 50.367,-108.609 56.25,-135.937c18.492,-85.945 0.188,-107.812 -4.687,-112.499c-6.123,-5.739 -13.584,-9.857 -21.703,-11.977c91.64,-2.976 164.553,22.055 204.514,70.57c7.992,9.731 14.696,20.452 19.945,31.898c5.662,12.3 9.991,25.17 12.914,38.391c3.779,-2.55 7.691,-4.897 11.719,-7.031c72.328,-38.344 181.663,5.671 239.061,53.906c43.898,36.984 73.218,89.718 86.648,150.397Z" style="fill:#0cdd93;fill-rule:nonzero;"/><path d="M1601.86,429.366c-15.914,6.844 -31.57,13.219 -46.875,20.273c-15.304,7.055 -30.211,14.274 -44.812,22.031c-58.084,30.795 -111.203,70.158 -157.57,116.765c-23.437,23.438 -45.14,48.68 -67.194,75.305c4.988,-16.612 11.606,-32.69 19.757,-48c8.13,-15.417 17.455,-30.173 27.891,-44.133c21.058,-28.124 46.13,-53.007 74.413,-73.851c28.258,-20.911 59.393,-37.624 92.437,-49.617c32.813,-11.648 67.312,-18.89 101.953,-18.773Z" style="fill:#0cdd93;fill-rule:nonzero;"/><path d="M987.796,197.336c25.476,14.648 47.039,35.742 64.476,59.883c8.739,12.151 16.341,25.08 22.711,38.624c3.117,6.821 6.094,13.711 8.625,20.789c1.383,3.492 2.484,7.031 3.586,10.688l3.258,10.781c1.664,7.336 3.703,14.578 4.687,22.031c0.586,3.703 1.313,7.406 1.758,11.133l1.148,11.179c1.255,14.908 1.161,29.899 -0.281,44.789c-1.49,14.77 -4.338,29.37 -8.508,43.617c-4.084,14.154 -9.851,27.767 -17.179,40.547c1.712,-28.169 1.712,-56.417 0,-84.586c-1.032,-13.687 -2.696,-27.21 -4.828,-40.593l-1.735,-10.008c-0.633,-3.328 -1.383,-6.609 -2.086,-9.914l-0.984,-4.969c-0.375,-1.64 -0.844,-3.281 -1.242,-4.898l-2.344,-9.844l-2.836,-9.726l-1.43,-4.758c-0.468,-1.617 -1.078,-3.188 -1.57,-4.688c-1.992,-6.468 -4.336,-12.796 -6.609,-19.195c-4.781,-12.672 -10.172,-25.171 -16.172,-37.5c-5.953,-12.374 -12.539,-24.562 -19.664,-36.679c-7.125,-12.117 -14.859,-24.305 -22.781,-36.703Z" style="fill:#0cdd93;fill-rule:nonzero;"/><path d="M415.924,513.741c7.814,-23.086 19.812,-44.538 35.391,-63.281c1.921,-2.344 3.984,-4.688 6.046,-7.032l6.446,-6.656c2.179,-2.179 4.265,-4.5 6.609,-6.539l7.031,-6.094c4.688,-4.093 9.602,-7.919 14.719,-11.46l3.773,-2.766l3.961,-2.508l7.945,-4.945c2.625,-1.734 5.461,-3.024 8.18,-4.547c2.719,-1.523 5.508,-2.976 8.297,-4.383l8.555,-3.867l4.289,-1.898c1.429,-0.633 2.882,-1.149 4.336,-1.711l8.765,-3.352c2.93,-1.101 5.93,-1.945 8.906,-2.906c5.93,-1.992 11.977,-3.445 18,-5.062c12.098,-2.836 24.343,-5.003 36.68,-6.493c12.351,-1.382 24.609,-2.039 36.749,-2.343l9.375,0c3.118,0 6.235,0.187 9.375,0.281c3.141,0.094 6.235,0.211 9.375,0.492c3.141,0.281 6.235,0.445 9.375,0.75c12.36,1.392 24.636,3.45 36.774,6.164c24.067,5.676 47.384,14.164 69.468,25.289c21.732,11.003 42.198,24.347 61.031,39.797c9.361,7.637 18.296,15.782 26.765,24.398c8.414,8.542 16.245,17.641 23.438,27.234c-38.625,-28.125 -79.125,-51.562 -121.875,-67.734c-42.171,-16.463 -87.157,-24.521 -132.421,-23.718c-22.674,0.165 -45.291,2.305 -67.593,6.398c-22.038,4.13 -43.503,10.882 -63.937,20.109c-10.222,4.708 -20.105,10.119 -29.578,16.195l-7.031,4.688c-2.344,1.547 -4.547,3.375 -6.868,5.039l-6.867,5.086c-2.234,1.781 -4.437,3.609 -6.609,5.484c-8.789,7.526 -17.065,15.629 -24.773,24.258c-7.855,8.81 -15.233,18.034 -22.102,27.633Z" style="fill:#0cdd93;fill-rule:nonzero;"/><path d="M1494.04,794.989c22.009,-1.5 44.106,-1.1 66.046,1.195c22.049,2.237 43.915,6.012 65.438,11.297c10.851,2.766 21.234,5.578 31.757,8.625c10.524,3.047 21.094,6.234 31.57,9.656c21.692,6.852 42.623,15.915 62.461,27.047l7.5,4.687l7.289,5.039c2.461,1.641 4.805,3.539 7.031,5.391c2.227,1.852 4.688,3.633 7.031,5.742l6.586,6.188l6.164,6.656c2.11,2.156 3.914,4.687 5.789,7.031c1.918,2.324 3.71,4.749 5.367,7.266c6.865,9.825 12.509,20.45 16.805,31.64c2.141,5.529 3.98,11.17 5.508,16.898l1.101,4.289l0.914,4.313c0.657,2.859 1.125,5.742 1.594,8.625c1.777,11.432 2.452,23.009 2.016,34.57c-0.188,5.719 -0.656,11.391 -1.289,17.039c-0.633,5.648 -1.524,11.203 -2.649,16.734c-2.166,10.969 -5.135,21.763 -8.882,32.297c-3.668,10.437 -8.15,20.57 -13.407,30.304c3.834,-21.223 5.927,-42.724 6.258,-64.288c0.12,-10.453 -0.413,-20.903 -1.594,-31.289c-0.585,-5.156 -1.359,-10.219 -2.343,-15.258c-0.985,-5.039 -2.11,-9.937 -3.446,-14.812c-5.01,-19.128 -13.774,-37.071 -25.781,-52.781c-5.885,-7.674 -12.597,-14.677 -20.015,-20.883c-7.528,-6.364 -15.616,-12.035 -24.164,-16.945c-8.816,-5.166 -17.925,-9.814 -27.281,-13.922c-4.688,-2.344 -9.539,-4.195 -14.367,-6.258l-14.742,-5.929c-9.914,-3.891 -19.946,-7.617 -30.071,-11.461l-30.234,-11.438c-39.984,-15 -81.304,-26.718 -123.96,-37.265Z" style="fill:#0cdd93;fill-rule:nonzero;"/><g opacity="0.8"><path d="M1030.1,1339.56c9.34,11.51 17.264,24.1 23.602,37.5c6.505,13.425 11.663,27.463 15.398,41.906c2.039,7.266 3.375,14.672 4.688,22.172c0.632,3.75 1.031,7.523 1.523,11.32l0.703,5.719c0.235,1.922 0.258,3.82 0.399,5.742c0.21,3.844 0.468,7.711 0.609,11.578c0.141,3.867 0,7.758 0,11.719c0,3.96 0,7.828 -0.492,11.718c-0.492,3.891 -0.727,7.828 -1.149,11.719l-0.656,5.906l-0.984,5.859l-2.18,11.719c-0.34,1.96 -0.786,3.901 -1.336,5.813l-1.547,5.812c-1.031,3.844 -2.039,7.758 -3.187,11.719c-2.719,7.523 -5.25,15.234 -8.367,22.687l-4.922,11.086c-1.781,3.633 -3.68,7.195 -5.531,10.805c-7.652,14.275 -16.521,27.865 -26.508,40.617c-5.063,6.257 -10.289,12.445 -15.797,18.304c-2.695,3 -5.578,5.813 -8.461,8.602c-2.883,2.789 -5.695,5.672 -8.718,8.297c-3.024,2.625 -6.024,5.273 -9.071,7.851l-9.375,7.5c-3.14,2.461 -6.445,4.687 -9.656,7.031c-3.211,2.344 -6.492,4.688 -9.844,6.68c-6.656,4.336 -13.476,8.273 -20.343,12.117c-6.867,3.844 -14.063,7.289 -21.094,10.312c-14.178,6.35 -28.832,11.577 -43.828,15.633c-14.766,4.068 -29.827,6.976 -45.046,8.695l-5.649,0.68l-5.695,0.422c-3.773,0.258 -7.547,0.586 -11.32,0.727c-7.547,0.164 -15.047,0.375 -22.57,0l-5.602,-0.188c-1.875,0 -3.75,-0.281 -5.602,-0.422c-3.75,-0.328 -7.453,-0.586 -11.156,-1.008c-7.406,-0.984 -14.742,-1.922 -22.007,-3.468c-14.493,-2.792 -28.718,-6.83 -42.516,-12.071c-13.826,-5.153 -27.053,-11.794 -39.445,-19.804c7.031,-2.649 14.063,-4.36 20.789,-6.68l10.055,-3.07c3.351,-1.149 6.632,-2.133 9.914,-3.164c13.054,-4.195 25.781,-8.274 37.945,-12.727c6.14,-2.062 12.14,-4.5 18.093,-6.609c5.954,-2.109 11.719,-4.547 17.532,-7.031c11.531,-4.688 22.687,-9.68 33.515,-14.766c43.289,-20.578 81.351,-44.742 113.507,-73.64c2.11,-1.711 3.985,-3.633 5.977,-5.461l2.953,-2.765l2.836,-2.836c1.875,-1.922 3.914,-3.704 5.695,-5.696c1.781,-1.992 3.609,-3.914 5.531,-5.812c7.219,-7.875 14.063,-16.102 20.578,-24.586c13.316,-17.515 24.775,-36.366 34.195,-56.25c10.381,-21.849 18.843,-44.559 25.289,-67.874c7.266,-24.68 12.352,-50.953 18.328,-80.039Z" style="fill:#0cdd93;fill-rule:nonzero;"/></g></g><path d="M1494.04,891.457c-6.828,-7.062 -13.859,-14.219 -21.094,-21.469c-28.554,1.59 -56.848,6.306 -84.374,14.063c-106.242,30.023 -172.804,98.249 -210.936,138.28c-32.395,34.1 -60.71,71.854 -84.375,112.5l1.641,1.992c-39.141,0.656 -82.031,-6.234 -123.492,-27.773c-24.233,-12.705 -46.297,-29.176 -65.367,-48.797c-14.814,-15.324 -28.234,-31.936 -40.101,-49.64c-19.839,-28.671 -35.122,-60.24 -45.304,-93.586c2.789,1.571 5.39,3.094 7.804,4.524l7.031,-7.032c14.813,-26.343 33.375,-60.444 53.906,-100.78c40.828,-80.25 50.367,-108.609 56.25,-135.937c18.492,-85.945 0.188,-107.812 -4.687,-112.499c-6.123,-5.739 -13.584,-9.857 -21.703,-11.977c91.64,-2.976 164.553,22.055 204.514,70.57c7.992,9.731 14.696,20.452 19.945,31.898c5.662,12.3 9.991,25.17 12.914,38.391c3.779,-2.55 7.691,-4.897 11.719,-7.031c72.328,-38.344 181.663,5.671 239.061,53.906c43.898,36.984 73.218,89.718 86.648,150.397Zm0,-96.468c22.009,-1.5 44.106,-1.1 66.046,1.195c22.049,2.237 43.915,6.012 65.438,11.297c10.851,2.766 21.234,5.578 31.757,8.625c10.524,3.047 21.094,6.234 31.57,9.656c21.692,6.852 42.623,15.915 62.461,27.047l7.5,4.687l7.289,5.039c2.461,1.641 4.805,3.539 7.031,5.391c2.227,1.852 4.688,3.633 7.031,5.742l6.586,6.188l6.164,6.656c2.11,2.156 3.914,4.687 5.789,7.031c1.918,2.324 3.71,4.749 5.367,7.266c6.865,9.825 12.509,20.45 16.805,31.64c2.141,5.529 3.98,11.17 5.508,16.898l1.101,4.289l0.914,4.313c0.657,2.859 1.125,5.742 1.594,8.625c1.777,11.432 2.452,23.009 2.016,34.57c-0.188,5.719 -0.656,11.391 -1.289,17.039c-0.633,5.648 -1.524,11.203 -2.649,16.734c-2.166,10.969 -5.135,21.763 -8.882,32.297c-3.668,10.437 -8.15,20.57 -13.407,30.304c3.834,-21.223 5.927,-42.724 6.258,-64.288c0.12,-10.453 -0.413,-20.903 -1.594,-31.289c-0.585,-5.156 -1.359,-10.219 -2.343,-15.258c-0.985,-5.039 -2.11,-9.937 -3.446,-14.812c-5.01,-19.128 -13.774,-37.071 -25.781,-52.781c-5.885,-7.674 -12.597,-14.677 -20.015,-20.883c-7.528,-6.364 -15.616,-12.035 -24.164,-16.945c-8.816,-5.166 -17.925,-9.814 -27.281,-13.922c-4.688,-2.344 -9.539,-4.195 -14.367,-6.258l-14.742,-5.929c-9.914,-3.891 -19.946,-7.617 -30.071,-11.461l-30.234,-11.438c-39.984,-15 -81.304,-26.718 -123.96,-37.265Zm107.812,-365.623c-15.914,6.844 -31.57,13.219 -46.875,20.273c-15.304,7.055 -30.211,14.274 -44.812,22.031c-58.084,30.795 -111.203,70.158 -157.57,116.765c-23.437,23.438 -45.14,48.68 -67.194,75.305c4.988,-16.612 11.606,-32.69 19.757,-48c8.13,-15.417 17.455,-30.173 27.891,-44.133c21.058,-28.124 46.13,-53.007 74.413,-73.851c28.258,-20.911 59.393,-37.624 92.437,-49.617c32.813,-11.648 67.312,-18.89 101.953,-18.773Zm-1185.93,84.375c7.814,-23.086 19.812,-44.538 35.391,-63.281c1.921,-2.344 3.984,-4.688 6.046,-7.032l6.446,-6.656c2.179,-2.179 4.265,-4.5 6.609,-6.539l7.031,-6.094c4.688,-4.093 9.602,-7.919 14.719,-11.46l3.773,-2.766l3.961,-2.508l7.945,-4.945c2.625,-1.734 5.461,-3.024 8.18,-4.547c2.719,-1.523 5.508,-2.976 8.297,-4.383l8.555,-3.867l4.289,-1.898c1.429,-0.633 2.882,-1.149 4.336,-1.711l8.765,-3.352c2.93,-1.101 5.93,-1.945 8.906,-2.906c5.93,-1.992 11.977,-3.445 18,-5.062c12.098,-2.836 24.343,-5.003 36.68,-6.493c12.351,-1.382 24.609,-2.039 36.749,-2.343l9.375,0c3.118,0 6.235,0.187 9.375,0.281c3.141,0.094 6.235,0.211 9.375,0.492c3.141,0.281 6.235,0.445 9.375,0.75c12.36,1.392 24.636,3.45 36.774,6.164c24.067,5.676 47.384,14.164 69.468,25.289c21.732,11.003 42.198,24.347 61.031,39.797c9.361,7.637 18.296,15.782 26.765,24.398c8.414,8.542 16.245,17.641 23.438,27.234c-38.625,-28.125 -79.125,-51.562 -121.875,-67.734c-42.171,-16.463 -87.157,-24.521 -132.421,-23.718c-22.674,0.165 -45.291,2.305 -67.593,6.398c-22.038,4.13 -43.503,10.882 -63.937,20.109c-10.222,4.708 -20.105,10.119 -29.578,16.195l-7.031,4.688c-2.344,1.547 -4.547,3.375 -6.868,5.039l-6.867,5.086c-2.234,1.781 -4.437,3.609 -6.609,5.484c-8.789,7.526 -17.065,15.629 -24.773,24.258c-7.855,8.81 -15.233,18.034 -22.102,27.633Zm571.872,-316.405c25.476,14.648 47.039,35.742 64.476,59.883c8.739,12.151 16.341,25.08 22.711,38.624c3.117,6.821 6.094,13.711 8.625,20.789c1.383,3.492 2.484,7.031 3.586,10.688l3.258,10.781c1.664,7.336 3.703,14.578 4.687,22.031c0.586,3.703 1.313,7.406 1.758,11.133l1.148,11.179c1.255,14.908 1.161,29.899 -0.281,44.789c-1.49,14.77 -4.338,29.37 -8.508,43.617c-4.084,14.154 -9.851,27.767 -17.179,40.547c1.712,-28.169 1.712,-56.417 0,-84.586c-1.032,-13.687 -2.696,-27.21 -4.828,-40.593l-1.735,-10.008c-0.633,-3.328 -1.383,-6.609 -2.086,-9.914l-0.984,-4.969c-0.375,-1.64 -0.844,-3.281 -1.242,-4.898l-2.344,-9.844l-2.836,-9.726l-1.43,-4.758c-0.468,-1.617 -1.078,-3.188 -1.57,-4.688c-1.992,-6.468 -4.336,-12.796 -6.609,-19.195c-4.781,-12.672 -10.172,-25.171 -16.172,-37.5c-5.953,-12.374 -12.539,-24.562 -19.664,-36.679c-7.125,-12.117 -14.859,-24.305 -22.781,-36.703Z" style="fill-opacity:0.2;"/></g><g id="JS"><text x="578.4px" y="1990.3px" style="font-family:'Arial-BoldMT', 'Arial', sans-serif;font-weight:700;font-size:1191.59px;fill:#212121;">J</text><text x="1157.46px" y="1989.72px" style="font-family:'Arial-BoldMT', 'Arial', sans-serif;font-weight:700;font-size:1191.59px;fill:#212121;">S</text></g></svg>